<?xml version="1.0" encoding="UTF-8" standalone="no"?>
<svg
   xmlns:dc="http://purl.org/dc/elements/1.1/"
   xmlns:cc="http://creativecommons.org/ns#"
   xmlns:rdf="http://www.w3.org/1999/02/22-rdf-syntax-ns#"
   xmlns:svg="http://www.w3.org/2000/svg"
   xmlns="http://www.w3.org/2000/svg"
   width="1428"
   height="1134"
   viewBox="0 0 377.82499 300.0375"
   version="1.1"
   id="svg8">
  <defs
     id="defs2" />
  <metadata
     id="metadata5">
    <rdf:RDF>
      <cc:Work
         rdf:about="">
        <dc:format>image/svg+xml</dc:format>
        <dc:type
           rdf:resource="http://purl.org/dc/dcmitype/StillImage" />
        <dc:title></dc:title>
      </cc:Work>
    </rdf:RDF>
  </metadata>
  <g
     id="layer1"
     transform="translate(34.031677,-432.66072)">
    <g
       id="g1492"
       transform="translate(372.93747,216.45651)">
      <path
         d="m -406.96915,216.20421 h 377.825015 v 300.0375 H -406.96915 Z"
         style="font-variation-settings:normal;opacity:1;vector-effect:none;fill:#dad7d6;fill-opacity:1;stroke:none;stroke-width:3.96875;stroke-linecap:butt;stroke-linejoin:miter;stroke-miterlimit:4;stroke-dasharray:none;stroke-dashoffset:0;stroke-opacity:1;paint-order:stroke markers fill;stop-color:#000000;stop-opacity:1"
         id="rect1459" />
      <g
         transform="translate(-705.02621,189.97868)"
         id="g1130">
        <g
           style="opacity:1"
           id="g1161" />
        <path
           id="path1249-6"
           style="fill:#1a1b1b;fill-opacity:1;stroke-width:1"
           d="m 512.7685,226.16888 c -0.76925,-0.008 -2.10798,0.17222 -3.77961,0.52348 -3.66866,0.77089 -4.94641,1.24227 -5.11494,1.88671 -0.12477,0.47714 -0.0527,0.52626 0.56741,0.38757 0.39083,-0.0874 2.4179,-0.51125 4.50412,-0.94206 3.571,-0.73744 4.54132,-1.08725 4.54132,-1.63659 0,-0.14291 -0.25675,-0.21461 -0.7183,-0.21911 z m 0.5178,1.83658 c -1.53276,0.0282 -4.75061,0.6297 -9.03873,1.71669 -5.44228,1.37954 -6.12858,1.83362 -6.5257,4.31705 -0.19064,1.19222 -0.18946,1.19414 4.44831,6.06165 1.27632,1.33953 2.32079,2.55752 2.32079,2.7068 0,0.45147 -1.24904,0.62466 -4.70152,0.65216 l -3.28869,0.0264 -1.29708,-1.40819 c -0.79798,-0.86616 -1.47295,-1.37475 -1.75287,-1.32085 -0.43988,0.0847 -1.64671,1.89975 -1.65571,2.48977 -0.002,0.15934 0.47963,1.03854 1.07126,1.95389 l 1.0759,1.66398 -0.7643,0.95653 c -1.0997,1.37671 -3.05661,2.61628 -4.46329,2.82722 -0.84777,0.12713 -1.69634,0.0384 -2.83703,-0.29714 -0.89512,-0.26327 -1.6663,-0.50589 -1.7136,-0.53899 -0.0473,-0.0331 0.21411,-0.51736 0.58033,-1.07641 1.42328,-2.17274 1.60043,-5.52479 0.41858,-7.91012 -1.21037,-2.44291 -3.35509,-2.78935 -5.19968,-0.84026 -1.11901,1.18241 -1.40147,1.82386 -1.40147,3.18017 0,1.89113 1.45008,3.09852 3.72122,3.09852 0.57261,0 1.04128,0.0991 1.04128,0.22014 0,0.43634 -2.95644,2.39833 -4.2726,2.83549 -1.30909,0.43487 -1.86251,0.43979 -6.43579,0.0537 -1.36522,-0.11524 -1.13037,0.67619 0.63717,2.14716 3.04331,2.53264 5.70809,2.51862 9.06508,-0.0481 1.13587,-0.86846 1.25643,-0.90722 1.4025,-0.447 0.20399,0.64272 2.45023,2.53083 3.61011,3.03444 1.14252,0.49601 2.64846,0.50671 3.79564,0.0274 1.8672,-0.78017 3.99296,-3.577 4.99091,-6.56653 0.13682,-0.4099 0.55838,-0.46357 3.66903,-0.46457 3.89656,-0.002 5.26016,-0.26563 6.19342,-1.19889 0.55336,-0.55336 0.62763,-0.8719 0.62683,-2.69028 -0.001,-2.61216 -0.28789,-3.10928 -3.73052,-6.47816 -1.44092,-1.41005 -2.5255,-2.62195 -2.41071,-2.69285 0.5758,-0.35587 5.84234,-1.75541 8.52352,-2.26498 1.67349,-0.31805 3.30566,-0.6855 3.62716,-0.81701 0.54049,-0.22108 1.6645,-1.99808 1.6645,-2.63136 0,-0.16777 -0.24592,-0.25813 -0.71003,-0.27544 -0.087,-0.003 -0.18204,-0.004 -0.28422,-0.002 z m -43.05112,0.0537 c -3.1263,0.0429 -13.23955,2.36699 -14.63063,3.5848 -0.29232,0.25591 -0.66389,0.87011 -0.82579,1.36477 -0.63321,1.93459 -0.51234,2.17513 2.83755,5.64875 3.38991,3.5151 3.96927,4.29022 3.37551,4.51807 -0.19931,0.0765 -1.6084,0.22253 -3.13108,0.32453 -3.22002,0.21569 -4.45555,-0.0626 -4.93303,-1.11053 -0.17151,-0.37641 -0.41974,-2.36716 -0.55191,-4.42402 -0.3862,-6.01013 -0.97588,-9.23566 -1.74201,-9.52965 -0.34322,-0.13171 -0.74328,0.3423 -1.77715,2.1053 -0.0916,0.15619 -0.004,1.22775 0.19378,2.38125 0.19825,1.15351 0.49717,3.88296 0.66405,6.06578 0.41339,5.40729 0.88284,6.729 2.71094,7.63003 1.06441,0.52463 7.10577,0.61366 8.72453,0.12867 1.65694,-0.49644 2.33061,-1.51589 2.33061,-3.52847 0,-0.92525 -0.12517,-2.01758 -0.27802,-2.42724 -0.15285,-0.40965 -1.5948,-2.06884 -3.20394,-3.68763 -1.60914,-1.6188 -2.82342,-3.00211 -2.69854,-3.07371 0.9522,-0.5459 6.31205,-1.92705 10.14925,-2.61535 0.80036,-0.14357 1.65541,-0.31937 1.90015,-0.39067 0.44255,-0.12894 1.80402,-2.19078 1.80402,-2.73213 0,-0.16999 -0.33935,-0.2405 -0.91829,-0.23255 z m -65.29886,0.38034 c -0.33476,-0.0407 -0.74307,0.4351 -1.41025,1.57355 l -0.65732,1.12138 0.39946,3.26543 c 0.21965,1.79596 0.53084,5.16434 0.69143,7.48533 0.16059,2.32099 0.41057,4.44154 0.55552,4.71237 0.16131,0.30143 0.48734,0.46062 0.84077,0.41032 0.44749,-0.0637 0.69262,-0.43651 1.08883,-1.65727 0.47972,-1.47807 0.49098,-1.83701 0.18603,-5.82083 -0.47056,-6.14742 -1.01429,-10.44529 -1.37717,-10.88254 -0.10204,-0.12294 -0.20571,-0.19416 -0.3173,-0.20774 z m -7.28586,8.56434 c -0.46813,0 -2.16782,1.53605 -2.16782,1.95905 0,0.14722 0.44041,0.7194 0.97927,1.27124 0.53885,0.55184 1.07091,1.00304 1.18183,1.00304 0.37541,0 2.07223,-1.63966 2.07223,-2.00246 0,-0.53088 -1.57399,-2.23087 -2.06551,-2.23087 z m 39.44462,0.62528 c -0.30295,0.0447 -0.59993,0.43869 -0.96945,1.16789 l -0.65732,1.29759 0.65009,1.40354 c 0.35763,0.77189 0.60018,1.45343 0.53898,1.51463 -0.22634,0.22634 -5.22295,0.57783 -10.74766,0.75603 -7.35349,0.23718 -8.29923,0.0669 -10.10946,-1.82108 -1.48256,-1.54629 -1.7903,-1.51669 -2.78794,0.26717 l -0.59377,1.06143 1.05679,1.63556 c 0.58125,0.8993 1.0573,1.75468 1.0573,1.90118 0,0.54314 -1.20516,1.869 -2.5244,2.7776 -1.68336,1.15937 -3.6717,1.46428 -5.24929,0.80512 -2.52657,-1.05567 -3.13413,0.0418 -1.07435,1.94045 0.66353,0.61162 1.70532,1.33856 2.3151,1.61541 2.2061,1.00158 4.11757,0.49251 6.18567,-1.64641 1.018,-1.05287 2.72747,-4.13367 2.728,-4.9165 1.6e-4,-0.25732 1.80666,-0.33138 8.13645,-0.33538 10.4537,-0.006 12.04639,-0.29474 13.67566,-2.47943 0.85064,-1.14066 0.73933,-3.39171 -0.26459,-5.35472 -0.57674,-1.12772 -0.97629,-1.64758 -1.36581,-1.59008 z m 32.1815,0.4656 c -0.87251,0.0407 -1.70156,0.91774 -2.56108,2.66392 -1.15472,2.34591 -1.44387,3.78968 -0.98082,4.8979 0.20244,0.4845 0.64124,0.99048 0.97513,1.12448 0.33389,0.134 1.11261,0.25145 1.73065,0.26045 0.93552,0.014 1.30425,-0.14658 2.20193,-0.95757 2.66681,-2.40931 2.75193,-4.68172 0.26768,-7.16597 -0.57081,-0.57081 -1.10998,-0.84765 -1.63349,-0.82321 z m -22.3423,0.88729 c -0.40504,0.0193 -0.82558,0.49833 -1.31465,1.46348 l -0.63769,1.25883 1.16117,1.66915 1.16169,1.66915 -0.4868,0.67696 c -0.67961,0.94481 -1.82518,1.97913 -2.91661,2.63343 -1.16584,0.69892 -3.78698,0.76141 -5.12682,0.12248 -1.96967,-0.93927 -2.38676,0.43585 -0.62787,2.06912 0.61847,0.5743 1.5412,1.26954 2.05052,1.54513 1.46343,0.79184 3.5927,0.69699 5.0462,-0.22479 2.1545,-1.36634 3.72517,-3.81963 4.331,-6.76549 0.45325,-2.20392 0.2116,-2.91716 -1.91616,-5.66115 -0.24336,-0.31385 -0.48096,-0.46785 -0.72398,-0.4563 z m 21.86791,2.25723 c 0.25052,-0.003 1.55753,1.36329 1.55753,1.62832 0,0.12928 -0.30575,0.35107 -0.67903,0.49299 -0.71866,0.27319 -1.35917,0.30174 -1.89704,0.0842 -0.23741,-0.096 -0.16459,-0.41534 0.2651,-1.16789 0.32521,-0.56958 0.66414,-1.03666 0.75344,-1.03766 z m -66.83778,0.67644 c -0.29681,-0.023 -0.62326,0.32841 -1.23093,1.23403 l -0.66198,0.98702 0.49145,1.9234 c 0.71679,2.80387 0.63032,3.09418 -1.19476,3.99562 -2.79018,1.37811 -5.93886,1.22376 -7.05642,-0.34571 -0.64633,-0.90768 -0.70179,-2.63712 -0.13642,-4.23954 0.50978,-1.44488 0.49913,-1.75597 -0.0651,-1.97249 -1.08675,-0.41703 -2.71608,3.04312 -2.70888,5.75262 0.007,2.70941 1.27637,4.3854 3.87625,5.11752 2.03977,0.57439 4.37418,0.27859 6.64508,-0.84129 2.67456,-1.31895 3.33117,-2.33085 3.45818,-5.32939 0.0976,-2.30361 -0.51005,-5.6337 -1.12034,-6.14019 -0.10156,-0.0843 -0.19717,-0.13392 -0.29611,-0.1416 z m 79.8835,0.0104 c 0.21282,10e-4 0.4263,0.11627 0.72398,0.36432 l 0.62012,0.51676 -1.12448,0.009 c -1.19065,0.009 -1.45805,-0.32358 -0.62011,-0.77204 0.14539,-0.0778 0.27279,-0.1184 0.40049,-0.11783 z m -47.6896,5.92573 c -0.4648,0 -2.16317,1.53821 -2.16317,1.95906 0,0.14722 0.44041,0.7194 0.97926,1.27124 0.53886,0.55183 1.09969,1.00304 1.24592,1.00304 0.14623,0 0.7109,-0.43431 1.25471,-0.96532 l 0.98857,-0.96583 -0.9431,-1.15084 c -0.51882,-0.63315 -1.13199,-1.15135 -1.36219,-1.15135 z m 33.31786,7.68842 c -0.91594,0.0227 -2.48228,0.27903 -4.85706,0.78083 -4.76419,1.00671 -8.8948,2.27251 -9.62681,2.95021 -0.7665,0.70963 -1.31536,2.7032 -0.95653,3.47421 0.14957,0.32137 1.72048,2.11385 3.49075,3.98322 1.77027,1.86938 3.17313,3.53624 3.11764,3.70416 -0.12451,0.37683 -2.03654,0.64843 -4.78111,0.67903 -2.52067,0.0281 -3.60777,-0.41255 -4.22868,-1.71462 -0.38,-0.79688 -0.51363,-0.88791 -0.95705,-0.65061 -0.89448,0.47872 -1.32786,1.31871 -1.05316,2.04122 0.33482,0.88066 0.34538,0.86822 -0.5395,0.61443 -1.2309,-0.35301 -1.33892,-0.47802 -1.05679,-1.22008 0.34037,-0.89523 -0.11577,-1.75339 -0.87333,-1.64279 -0.36229,0.0529 -0.78877,0.5215 -1.19579,1.31413 -0.64924,1.26433 -1.10779,1.53554 -2.60398,1.54254 -0.71947,0.003 -0.84908,-0.1061 -0.99632,-0.84232 -0.0931,-0.46534 -0.35391,-1.12801 -0.57981,-1.47278 -0.49953,-0.76238 -0.83045,-0.55452 -1.82986,1.15083 l -0.68523,1.16892 0.67334,2.12959 c 0.37006,1.17146 0.67283,2.30919 0.67283,2.52801 0,0.22529 -0.65987,0.7068 -1.52135,1.11053 -1.28547,0.60242 -1.87715,0.71313 -3.81528,0.71313 -2.06754,0 -2.36177,-0.0635 -2.98121,-0.64544 -0.98454,-0.92493 -1.3181,-2.2491 -0.93741,-3.72018 0.58328,-2.25394 0.61467,-2.89201 0.15193,-3.06958 -0.67261,-0.2581 -1.13763,0.3222 -1.78749,2.22983 -1.56914,4.60616 -0.0928,8.21059 3.60133,8.79223 4.6003,0.7243 8.81315,-1.77165 9.51467,-5.63738 0.16935,-0.93326 0.23819,-0.99249 1.16013,-1.00149 0.53911,-0.005 1.26808,-0.16879 1.62006,-0.3638 0.55265,-0.30618 0.78732,-0.28759 1.71979,0.13591 1.5527,0.7052 2.69028,0.64683 3.45354,-0.17674 0.60465,-0.65244 0.66015,-0.66263 1.42988,-0.26458 0.61061,0.31577 1.6352,0.41224 4.31912,0.40824 5.35095,-0.009 6.40817,-0.66585 6.38617,-3.96771 -0.0155,-2.32262 -0.44744,-3.06386 -3.57962,-6.15053 -1.44188,-1.42093 -2.55139,-2.69752 -2.46549,-2.83652 0.23766,-0.38453 3.39901,-1.25948 8.10545,-2.24379 2.33223,-0.48776 4.26966,-0.9275 4.30517,-0.9772 0.45943,-0.64271 1.21853,-2.19176 1.21853,-2.48667 0,-0.26023 -0.31907,-0.38402 -1.03147,-0.36639 z m 38.08295,0.11679 c -0.21142,0 -0.73278,0.56411 -1.1591,1.25367 l -0.77515,1.25367 0.69763,4.3186 c 0.69204,4.28352 0.87355,7.17157 0.48938,7.77575 -0.3011,0.47354 -1.55137,0.87644 -2.71973,0.87644 -1.26021,0 -1.99735,-0.64421 -2.24431,-1.96061 -0.11559,-0.61613 -0.36047,-0.99048 -0.72244,-1.10536 -0.57534,-0.18261 -0.74691,-0.0227 -1.57406,1.46968 -0.70343,1.26911 -1.83049,1.59629 -5.49941,1.59629 -3.04,0 -3.22741,-0.0318 -3.84524,-0.64958 -0.35718,-0.35719 -0.64905,-0.93776 -0.64905,-1.29036 0,-0.75211 -0.62186,-1.35765 -1.17564,-1.14515 -0.21356,0.082 -0.62587,0.61476 -0.91623,1.18391 -0.83357,1.63393 -1.75834,1.9314 -5.73401,1.8433 l -3.34657,-0.0744 -0.51521,-1.38235 c -0.65207,-1.74944 -1.51694,-2.45411 -3.01222,-2.45411 -1.34895,0 -2.50718,0.84273 -3.30368,2.40399 -0.79108,1.55064 -0.68177,2.71596 0.36071,3.85351 0.78538,0.85699 1.05737,0.97541 2.57968,1.12086 l 1.70171,0.16226 -1.38855,1.10536 c -2.53013,2.01399 -5.78278,2.70231 -8.97258,1.89911 -0.98378,-0.24777 -1.24496,-0.23569 -1.43608,0.0661 -0.12848,0.2029 -0.2352,0.45508 -0.2372,0.56017 -0.007,0.34471 3.11796,2.69838 4.01423,3.02307 0.48185,0.17457 1.42284,0.32635 2.09082,0.33745 2.60683,0.0432 6.15311,-2.61603 7.5458,-5.65806 l 0.6537,-1.42782 3.91346,-0.0847 c 3.7581,-0.0817 3.94972,-0.11293 4.82709,-0.78289 l 0.91365,-0.69764 0.85524,0.76378 0.85473,0.76378 h 4.11396 c 4.22092,0 4.72645,-0.0993 5.88543,-1.156 0.57367,-0.52301 0.63191,-0.52968 0.87281,-0.0992 0.4587,0.81967 1.70635,1.25522 3.59668,1.25522 2.19953,0 3.37626,-0.67553 4.4974,-2.58279 0.71222,-1.21161 0.7361,-1.37309 0.7121,-4.82554 -0.0379,-5.43969 -1.06627,-11.50938 -1.94975,-11.50938 z m -127.02894,0.45165 c -0.34921,-0.003 -0.80037,0.46802 -1.32498,1.40044 l -0.74414,1.32291 0.38034,3.04271 c 0.20921,1.67349 0.51355,5.00723 0.67644,7.40833 0.1629,2.40109 0.40608,4.57399 0.54054,4.82865 0.39216,0.74277 1.22107,0.55375 1.74046,-0.39688 0.38564,-0.70582 0.46643,-1.47619 0.44907,-4.29947 -0.0216,-3.52064 -0.79093,-11.6817 -1.2051,-12.78527 -0.13007,-0.3466 -0.3031,-0.51946 -0.51263,-0.52142 z m 104.05825,4.65708 -1.08727,0.98186 c -0.59799,0.54025 -1.08727,1.1124 -1.08727,1.27124 0,0.15884 0.4404,0.74007 0.97926,1.29191 0.53885,0.55184 1.09893,1.00355 1.24437,1.00355 0.4344,0 2.0097,-1.6574 2.0097,-2.1146 0,-0.23296 -0.46322,-0.876 -1.0294,-1.42885 z m -66.71376,0.47388 -1.0728,1.12706 -1.07229,1.12758 0.96222,1.1746 c 0.52939,0.64604 1.10261,1.17461 1.27382,1.17461 0.17122,0 0.77845,-0.4784 1.34928,-1.06298 l 1.03818,-1.06247 -1.2392,-1.2392 z m 5.09427,0.0672 -0.84285,0.70952 c -1.44907,1.21931 -1.49913,1.55577 -0.40927,2.76211 0.52933,0.5859 1.10304,1.06505 1.27485,1.06505 0.17182,0 0.77948,-0.4784 1.35031,-1.06298 l 1.03818,-1.06247 -1.20561,-1.20561 z m -11.9972,2.20349 c -0.26324,0.007 -0.537,0.21915 -1.0387,0.6413 -1.0106,0.85036 -2.04,2.57583 -2.80758,4.70514 -0.56491,1.56708 -0.62291,1.62834 -1.87172,1.98696 -0.88839,0.2551 -2.89166,0.37838 -6.44819,0.39688 -5.83316,0.0303 -6.16549,-0.0543 -7.66671,-1.94975 -0.46448,-0.58647 -1.01172,-1.06609 -1.21595,-1.06609 -0.44291,0 -1.70067,1.90681 -1.70067,2.57814 0,0.2595 0.41672,1.09061 0.92604,1.84691 0.50933,0.7563 0.92604,1.53695 0.92604,1.73478 0,0.68068 -1.85579,2.52595 -3.22771,3.20962 -1.60223,0.79842 -3.00463,0.8719 -4.74389,0.24857 -2.43597,-0.87303 -2.8008,0.26845 -0.6935,2.16937 0.76398,0.68917 1.74625,1.40971 2.18281,1.60146 1.03788,0.45591 2.84083,0.46096 3.91811,0.0108 1.80779,-0.75535 4.01134,-3.63939 5.03277,-6.58667 0.14657,-0.42294 0.69344,-0.46364 6.32054,-0.46664 3.38794,-0.002 6.40128,-0.0685 6.69623,-0.1478 0.45233,-0.12154 0.58605,0.0424 0.85473,1.04697 0.35155,1.31445 1.58926,2.89063 2.73575,3.48351 0.40775,0.21084 1.23944,0.38343 1.84795,0.38343 0.92268,0 1.2521,-0.15427 1.98386,-0.93017 0.72596,-0.76975 0.89101,-1.16946 0.95705,-2.31511 l 0.0801,-1.38492 4.89479,-0.16279 c 6.17761,-0.20546 7.56726,-0.59946 8.7266,-2.47529 0.82782,-1.33945 0.71468,-3.1413 -0.32608,-5.19245 -0.48094,-0.94784 -1.0348,-1.69447 -1.25677,-1.69447 -0.21828,0 -0.68743,0.54981 -1.04232,1.22163 l -0.64544,1.22111 0.58188,1.39992 c 0.31993,0.76984 0.52786,1.45338 0.46199,1.51928 -0.30146,0.30146 -4.42084,0.56921 -8.92866,0.57981 l -4.94233,0.0114 0.67128,-1.20096 c 0.59012,-1.05586 0.65892,-1.44277 0.56999,-3.20342 -0.0909,-1.79991 -0.17589,-2.06668 -0.83716,-2.6355 -0.45948,-0.3952 -0.7119,-0.59236 -0.97513,-0.58498 z m -37.77289,1.01027 c -0.46044,0 -2.17455,1.52757 -2.17455,1.93787 0,0.13566 0.38696,0.69794 0.8599,1.24902 0.47294,0.55108 1.04404,1.01193 1.26917,1.02422 0.22513,0.0123 0.85146,-0.43069 1.39217,-0.98443 l 0.9834,-1.00666 -0.95033,-1.11001 c -0.52251,-0.61044 -1.14337,-1.11001 -1.37976,-1.11001 z m 36.97293,2.64584 c 0.36719,0 0.82194,1.11484 0.57516,1.40973 -0.32115,0.38376 -1.88722,1.31824 -1.88722,1.12603 0,-0.27912 1.16763,-2.53576 1.31206,-2.53576 z m -32.6812,2.47065 c -0.29174,-0.0178 -0.62863,0.27086 -1.06609,0.84439 -0.73131,0.9588 -0.73318,0.9697 -0.37052,2.59416 0.20031,0.89728 0.3711,2.10766 0.37931,2.68976 0.0145,1.03133 -0.0253,1.0783 -1.54616,1.83812 -1.79412,0.89635 -4.07378,1.17357 -5.57537,0.678 -1.80155,-0.59456 -2.44419,-2.62207 -1.59474,-5.02967 0.57288,-1.62371 0.51967,-2.11666 -0.22789,-2.11666 -0.49441,0 -0.80459,0.33782 -1.48828,1.62057 -2.08282,3.90777 -0.98856,8.0352 2.41122,9.09557 3.6194,1.12888 8.60602,-0.54261 10.05468,-3.37034 0.76064,-1.48474 0.78062,-4.89241 0.0424,-7.213 -0.34333,-1.07923 -0.64346,-1.60806 -1.01854,-1.6309 z m 96.7946,0.76583 c 0.3751,-0.0168 0.77867,0.0871 0.97359,0.32195 0.2984,0.35955 0.20321,0.41031 -0.77205,0.41031 -0.77175,0 -1.07937,-0.10136 -1.00407,-0.33073 0.0812,-0.24721 0.42744,-0.38474 0.80253,-0.40153 z m -65.19498,3.9672 c 0.55036,-0.0371 2.11099,0.49978 2.43344,0.88832 0.28482,0.3432 0.27889,0.45654 -0.0351,0.65525 v 5.3e-4 c -0.44532,0.28145 -0.48116,0.28138 -1.17357,-0.002 -0.64307,-0.26321 -1.5973,-1.28368 -1.39216,-1.4888 0.0308,-0.0308 0.0888,-0.0479 0.16743,-0.0532 z m 87.50111,0.73381 -1.00355,0.97978 c -0.55181,0.53882 -1.00304,1.09917 -1.00304,1.2454 0,0.14623 0.44042,0.71733 0.97927,1.26918 0.53886,0.55183 1.0509,1.00355 1.1374,1.00355 0.0865,0 0.62237,-0.47637 1.19114,-1.05885 l 1.03404,-1.05936 -1.16788,-1.1896 z m 5.02967,0.26458 c -0.32754,0 -2.00918,1.60691 -2.00918,1.91978 0,0.12551 0.37676,0.6972 0.83768,1.27072 0.46092,0.57355 0.96693,1.0396 1.12448,1.0356 0.32408,-0.008 2.27118,-1.7531 2.27118,-2.03554 0,-0.28964 -1.9301,-2.19056 -2.22416,-2.19056 z" />
        <path
           d="m 535.95107,53.665716 c -0.15983,5.29e-4 -0.33899,0.19222 -0.33899,0.339513 l -0.0227,15.82229 -0.24702,0.162263 -0.13642,15.057996 -0.44235,0.228409 -0.82683,37.682453 h -0.76481 v 1.25264 c -3.40188,1.80196 -4.15117,4.54284 -4.2633,5.88026 h -1.28106 v 1.67173 c -1.19507,-0.0781 -1.33524,0.49923 -1.6428,0.97255 h -0.7214 v 1.80041 h 0.79427 v 0.78548 c -1.04849,0 -1.69292,0.293 -1.69292,1.08624 -1.8632,0.10993 -3.46154,1.15953 -4.49275,2.5647 0.74448,0.9962 0.85918,1.78811 0.97565,2.69803 -1.45806,0.12652 -3.03839,1.31495 -3.41013,1.97352 1.69532,0.35318 6.13015,8.73636 9.43508,12.70672 v 1.54047 h 0.88316 l 0.64905,0.64906 v 1.34204 h 0.65526 l 1.91616,1.91616 -0.015,0.59893 c -0.96893,0 -0.60079,1.62419 -0.0114,1.62419 l -0.0403,2.22053 -0.72347,0.7426 -2.79569,120.56266 c 2.84379,-0.0837 5.69678,-0.13126 8.56071,-0.13126 2.86369,0 5.71763,0.0424 8.56124,0.12609 l -2.79518,-120.55749 -0.72347,-0.7426 -0.0403,-2.22053 c 0.58941,0 0.95756,-1.62419 -0.0114,-1.62419 l -0.0155,-0.59893 1.91616,-1.91616 h 0.65526 v -1.34204 l 0.64906,-0.64906 h 0.88315 v -1.54047 c 3.30491,-3.97036 7.73976,-12.35354 9.43508,-12.70672 -0.37174,-0.65857 -1.95209,-1.847 -3.41013,-1.97352 0.11647,-0.90992 0.23114,-1.70184 0.97565,-2.69803 -1.03124,-1.40517 -2.62953,-2.45476 -4.49275,-2.5647 0,-0.79324 -0.64445,-1.08624 -1.69292,-1.08624 v -0.78548 h 0.79427 v -1.80041 h -0.7214 c -0.30756,-0.47332 -0.44773,-1.05065 -1.6428,-0.97255 v -1.67173 h -1.28106 c -0.11213,-1.33742 -0.86142,-4.0783 -4.2633,-5.88026 v -1.25264 h -0.76481 l -0.82682,-37.682453 -0.44236,-0.228409 -0.13642,-15.057996 -0.24702,-0.162263 -0.0227,-15.82229 c 0,-0.147293 -0.17917,-0.339114 -0.339,-0.339513 z m 15.66158,96.673684 c -1.46759,2.24549 -3.05884,4.73193 -4.59765,6.68538 v 0.86661 c -7e-5,0.92173 -0.63475,1.72208 -1.53221,1.93218 v 0.0589 c -10e-5,1.09207 -0.8825,1.97886 -1.97456,1.98437 h 0.15658 l -0.32091,0.32091 c 0.14672,0.44954 0.20062,0.87535 0.16072,1.23869 -0.0565,0.51468 -0.20046,0.97087 -0.5209,1.44797 -0.006,0.01 -0.0228,0.0203 -0.0295,0.03 l 0.009,0.51625 0.17466,0.17932 c 0.35003,0.35917 0.55109,0.83755 0.56276,1.33893 l 0.51056,22.02295 c 14.42265,11.25834 24.53911,27.2049 27.68308,45.51298 3.38862,19.73283 -1.42365,39.89874 -13.15477,55.82812 -7.51768,-0.59774 -15.11788,-0.90227 -22.78879,-0.90227 -9.23062,0 -18.35826,0.44126 -27.3637,1.30328 0.24813,0.92744 0.57758,2.15224 0.86248,3.24476 8.72408,-0.8182 17.56333,-1.23973 26.50122,-1.23973 6.81371,0 13.57013,0.24545 20.26182,0.72451 l -1.01286,1.25524 c -6.3599,-0.43453 -12.77816,-0.65734 -19.24844,-0.65734 -7.93853,0 -15.79869,0.33523 -23.5691,0.98547 13.64935,4.52723 27.88749,4.91517 41.18095,1.69963 0.006,-0.003 0.0125,-0.003 0.0186,-0.004 h 0.003 c 19.58813,-4.88334 37.55667,-17.75724 47.99914,-36.60138 18.53533,-33.4484 8.9545,-75.48486 -22.24413,-97.59818 -8.56507,-6.07083 -18.00772,-10.1024 -27.72595,-12.17238 z m -31.3185,0.006 c -15.16145,3.22627 -29.41616,11.14759 -40.41201,23.50451 -3.1638,3.49898 -4.6917,8.17769 -4.20232,12.86949 0.47466,3.40297 -0.20363,6.86676 -1.92702,9.8392 -4.38004,7.36189 -6.17015,15.97817 -5.08496,24.47551 0.15682,1.11067 1.1242,1.92502 2.24534,1.89032 1.12115,-0.0347 1.7961,-0.95317 2.12442,-2.02572 3.14008,-10.25801 12.3084,-17.53009 22.95777,-18.8252 2.72257,-0.3311 4.80585,-1.5129 6.45646,-3.35742 2.86827,-2.93956 7.25446,-3.80083 11.02155,-2.16473 3.76711,1.63611 6.1315,5.42959 5.94123,9.53224 0.88138,-5.33781 -0.76774,-11.04133 -4.46897,-14.9872 -3.70123,-3.94587 -9.02829,-5.94429 -14.41153,-5.40587 -7.72451,0 -11.07796,-7.154 -7.67446,-11.96413 3.40349,-4.81013 14.68519,-13.26963 22.74228,-15.42852 8.05706,-2.15888 10.66004,5.87279 9.19065,10.28568 -1.09201,3.27952 -0.89693,6.20001 3.14813,9.62319 l 0.26148,-11.26753 c 0.0115,-0.50132 0.2124,-0.97969 0.56224,-1.33894 l 0.17518,-0.17932 0.009,-0.51625 c -0.007,-0.01 -0.0236,-0.0203 -0.03,-0.03 -0.32041,-0.47711 -0.46385,-0.93328 -0.52039,-1.44797 -0.0399,-0.36346 0.0132,-0.78948 0.1602,-1.2392 l -0.32091,-0.32039 h 0.15761 c -1.09226,-0.005 -1.97498,-0.89211 -1.97507,-1.98438 v -0.0589 c -0.89746,-0.2101 -1.53214,-1.01045 -1.53221,-1.93218 v -0.86661 c -1.53754,-1.95184 -3.12745,-4.43566 -4.59403,-6.6797 z"
           style="color:#000000;font-style:normal;font-variant:normal;font-weight:normal;font-stretch:normal;font-size:medium;line-height:normal;font-family:sans-serif;font-variant-ligatures:normal;font-variant-position:normal;font-variant-caps:normal;font-variant-numeric:normal;font-variant-alternates:normal;font-variant-east-asian:normal;font-feature-settings:normal;font-variation-settings:normal;text-indent:0;text-align:start;text-decoration:none;text-decoration-line:none;text-decoration-style:solid;text-decoration-color:#000000;letter-spacing:normal;word-spacing:normal;text-transform:none;writing-mode:lr-tb;direction:ltr;text-orientation:mixed;dominant-baseline:auto;baseline-shift:baseline;text-anchor:start;white-space:normal;shape-padding:0;shape-margin:0;inline-size:0;clip-rule:nonzero;display:inline;overflow:visible;visibility:visible;isolation:auto;mix-blend-mode:normal;color-interpolation:sRGB;color-interpolation-filters:linearRGB;solid-color:#000000;solid-opacity:1;vector-effect:none;fill:#1a1b1b;fill-opacity:1;fill-rule:nonzero;stroke:none;stroke-width:7.9375;stroke-linecap:butt;stroke-linejoin:miter;stroke-miterlimit:4;stroke-dasharray:none;stroke-dashoffset:0;stroke-opacity:1;color-rendering:auto;image-rendering:auto;shape-rendering:auto;text-rendering:auto;enable-background:accumulate;stop-color:#000000"
           id="path954-7" />
        <path
           id="path962-5"
           d="m 470.73263,217.47436 c -0.21675,-0.56485 0.58409,-4.69833 1.39202,-7.18483 2.48505,-7.64795 7.86492,-13.39131 13.86965,-14.80675 2.15789,-0.50866 3.50199,-0.51082 4.47593,-0.007 0.96114,0.49702 1.31762,1.14132 1.31762,2.38147 0,1.56881 -0.98541,2.31602 -3.77163,2.85995 -4.08743,0.79796 -6.9621,2.44056 -10.15486,5.80254 -2.34145,2.46556 -3.78779,4.86875 -5.07027,8.42466 -0.68174,1.89023 -1.13434,2.77624 -1.44914,2.83687 -0.25178,0.0485 -0.52597,-0.0896 -0.60932,-0.30674 z"
           style="fill:#eab71c;stroke-width:1" />
      </g>
    </g>
  </g>
</svg>
